<?xml version="1.0" encoding="utf-8"?>
<!-- Generator: Adobe Illustrator 18.1.1, SVG Export Plug-In . SVG Version: 6.00 Build 0)  -->
<svg version="1.1" id="Layer_1" xmlns="http://www.w3.org/2000/svg" xmlns:xlink="http://www.w3.org/1999/xlink" x="0px" y="0px"
	 viewBox="0 0 533.6 448.9" enable-background="new 0 0 533.6 448.9" xml:space="preserve">
<g>
	<path fill="#FFFFFF" d="M430.2,445.3h-0.4c-2,0.9-4,1.7-6.1,2.4h7.7C430.8,447,430.4,446.1,430.2,445.3z"/>
	<path fill="#FFFFFF" d="M411.4,441.9c0.5-1.1,1.5-1.9,3.2-2.1c3.6-0.6,7-1.6,10.3-2.9c-3.9-0.9-7.6-2.9-10.2-2
		c-1.7,0.6-2.5,3.7-3.8,7c0.1,0,0.3,0,0.4,0C411.3,441.9,411.3,441.9,411.4,441.9z"/>
	<path fill="#FFFFFF" d="M403.1,437c-4.5-1.2-8.4-4.6-12.7-7.1c-1.7,3.9-3.8,8.7-5.3,12.2c-3.9-1.7-7.7-3.6-11.7-5
		c-4.2-1.4-7-3.4-6.3-8.4c0.2-1.6-0.1-3.3-0.3-7c-2.3,2.6-3.8,3.7-4.5,5.2c-2.1,4.9-5.7,6.6-10.8,6.7c-3.3,0.1-6.6,1.5-10.5,2.4
		c-4.7-8.4-0.4-16.7,4.6-24.3c3.3-5.1,6.5-9.1,1.1-14.7c-1.5-1.5-0.9-4.8-2.2-6.6c-2.2-3.3-4.5-6.8-7.7-8.9
		c-3.3-2.2-7.6-3.5-11.6-3.8c-11.6-0.8-15.9-9.2-20-18c-2.1-4.4-3.1-9.3-5.1-13.7c-0.7-1.6-2.8-3.2-4.5-3.6
		c-18.1-4.8-35.5-11.1-51.6-20.8c-8.2-4.9-16.4-9.6-24.8-14.2c-1.2-0.7-3.3-0.4-4.8,0c-6.7,1.9-13.4,3.6-19.9,6.1
		c-5,1.9-9.7,4.7-14.4,7.1c-4.4,2.3-8.8,4.6-12.7,6.7c4.1,5.8,8.2,11.5,12.2,17.2c6.6,9.5,3.8,19.3,0.4,28.8
		c-2.1,5.8-2,10.9,0.6,16.4c1.1,2.3,1.4,5,1.9,7.5c1.1,5.4,1.9,11,3.3,16.4c2.4,9.4-0.5,14.1-10.2,15.2c-4.9,0.6-10.2,0.1-13.2,5.3
		c-0.1,0.2-0.4,0.4-0.5,0.4c-10.6-1.1-18.7,9.8-30,6.1c-1.6-0.5-4.2,1.9-6.4,3c-0.3-1-0.9-2.5-1.2-3.5c-5.2,0-10-0.5-14.5,0.2
		c-2.8,0.4-5.3,2.7-8.3,4.4c-0.2-1.7-0.5-4.4-1-8.2c-2.4,2-4.1,3.5-5.8,4.9c-6.1-13.3-5.6-19.4,3.8-27.6c3.5-3.1,8.5-4.7,12.9-6.6
		c3.9-1.7,9.3-1.7,11.6-4.5c3-3.7,4.9-9.4,4.8-14.2c-0.1-3.7-3.8-7.6-6.6-10.7c-5-5.5-6.1-12-6-18.8c0.1-5.1,0-9.4-4-13.5
		c-7.2-7.4-4.9-17-4-26c0.2-2.3,1-4.8,0.6-7c-1.6-7.3,0.4-13.6,3.5-20.1c5.7-12.1,10.4-24.7,16.6-36.5c3.4-6.6,9.2-12,13.4-18.2
		c2.9-4.2,5.8-8.8,7-13.7c0.8-3-0.5-8.2-2.7-9.8c-3.1-2.3-7.5-1-9.6,3.4c-0.5,1.1-1.4,2.1-2.4,3.5c-4.1-10.2,3.8-15.7,6.9-23.8
		c-2.7,1.5-5.5,3-8.6,4.8c0.2-2.2,0.4-4.2,0.6-6.2c-5.1,11.5-15.8,13.2-25.9,13.7c-10.4,0.5-20.5-2.9-29.5-8.6
		c-8.7-5.5-17.5-10.5-28.4-9.5c-2.2,0.2-4.6-1.1-6.7-2.2c-3.4-1.9-5.2-7.1-10.8-3.3c-3,2-7,2.5-10.5,3.7c-1.6-7,3.1-13.5,13.4-16.6
		c-1.5-6.2-2-6.4-7.2-3c-0.9,0.6-1.8,1.3-2.8,1.5c-2.7,0.4-5.6-0.1-8,0.8c-2.2,0.8-3.9,3.1-6.3,4.1c3.2-10.6,8.5-19.3,21-20.7
		c-1.4-8.6-8.5-5.6-13-7.3c8.8-8.2,18.6-8.7,26.8-1.7c1.9,1.6,4.8,2.1,6.6,3.8c2.7,2.8,5.4,5.9,7.1,9.3c3.5,6.9,10.5,8.1,16.5,10.6
		c7.5,3.1,15.2,7,23.8,4.3c1.7-0.5,3.4-2.5,4.1-4.2c3.2-8.3-0.1-15-5.7-21.1c-1.1-1.2-1-3.4-1.6-5.5c-1.3,0.4-2.5,0.8-4,1.3
		c1-7,1.9-13.4,2.7-19.9c-0.7-0.2-1.4-0.5-2.1-0.7c2.8-2.3,5.6-4.5,8.1-6.6c0.5-1.7,0.4-4.2,1.5-5c4-2.8,8.4-5,5.6-11.2
		c-0.3-0.7,0.6-2,1.1-3.6c-1.5-0.3-2.8-0.6-2.9-0.6c-1-4.2-1.6-7.9-2.8-11.5c-1-3.1-2.6-6.1-4.5-10.4c-3.2,9.4-10.2,11.1-18.1,9.8
		c-8.7-1.4-10.6-8-10.6-14c3.6-2.5,6.5-4.5,9.5-6.6c-4.3-4.6-11.1-4.9-15.8-0.9c-11.7-10.1-11.6-11,1.7-29.8
		c-3.3-5.4-2.6-7.2,3.2-9.9c4.4-2,8.4-4.9,12.8-6.8c5.1-2.2,10.9-3,15.7-5.6c11-5.9,19.4,3.3,29.2,4.5c3,0.4,5.6,4.2,8.5,6.4
		c0.5,0.4,1,0.9,1.6,1c4.5,1,9.1,1.8,13.6,3c3.1,0.8,5.9,3.2,8.9,3.4c10,0.8,10,0.6,17.4-7.3c0.7,3.8,2,6.9,1.7,9.8
		c-0.9,8.2-1.1,8.2,8.1,7.7c-0.8,2.6-1.4,4.9-2.4,8.2c2.2-1.2,3.8-2.1,5.5-3.1c0.6,0.9,1.1,1.7,2,3.1c2.7-5,5.2-9.7,7.7-14.4
		c0.6,0.2,1.2,0.4,1.8,0.6c0.2,3.7,0.5,7.5,0.9,12.9c3.8-4.5,6.6-7.8,9.4-11.2c0.6,0.2,1.1,0.4,1.7,0.7c-1.6,5.3-3.1,10.7-5,17
		c2.5-1.2,4.7-2.2,6.9-3.3v10.7c4-6.5,7.3-12,10.7-17.4c0.5,0.3,0.9,0.5,1.4,0.8c-0.4,4.1-0.7,8.2-1.2,13.1
		c7.2-4.3,13.4-8,19.6-11.7c0.4,0.5,0.8,1.1,1.1,1.6c-2.1,3.1-4.2,6.2-7.1,10.5c14.5-1.5,20.1-11,26.3-20.7
		c-1.8,10.7-1.1,21.9-7.1,30.9c-0.5,4.1-1,8.3-1.4,11.7c0.4,3.2,0.7,6,1.1,9.3c0,0,1,0.2,2.3,0.4c-0.6,2-1.1,4-1.7,6
		c0.7,0.6,1.3,1.1,2,1.7c4.4-4.3,8.8-8.7,13.9-13.7c-1.1,5.1-2.1,10.2-3.2,15.3c4.5-0.6,7.4-3.9,8.7-8.4c2.3-7.8,8.3-11.2,15.5-14.6
		c-2.3,5.1-4.3,9.7-6.9,15.5c14.5-8.4,27.4-15.8,41.2-23.8c-1.7,7-1.9,13.3-9.4,17.9c-11.8,7.2-17.8,21.3-32,26.2
		c0.5,0.7,1,1.4,1.5,2.1c2.6-1.2,5.2-2.4,8.2-3.8v6.7c5.1-4,10.3-6.2,12.4-10c3.9-7.1,9.6-7.1,16-7c-4.2,5-9.4,9.2-11.9,14.8
		c-2.9,6.3-6,10.8-12.9,12.9c-2.1,0.6-3.2,4.5-5.1,7.5c2.5,0.6,5.1,1.2,9.4,2.2c-5.8,2.6-10.4,4.7-15.3,6.9c1.1,0.8,2.2,1.6,3.3,2.4
		c-1.4,2.2-2.8,4.6-4.2,6.9c0.6,0.5,1.2,0.9,1.7,1.4c2.1-2.2,5.2-4,6.1-6.6c1.4-4.1,4-4.7,7.7-5.4c6-1.2,11.9-3.6,18-5.5
		c0.9,9.7-8.2,12.3-14.1,17.2c0.3,0.5,0.5,1.1,0.8,1.6c2.7-0.3,5.4-0.6,8.2-1c-0.8,7-6.9,7.5-12,9.1c0.3,2.2,0.6,4.1,1,6.6
		c8.2-5.4,13.9-16.1,26.9-12.2c-8.7,5.4-16.5,10.7-17.3,22.6c3.8-1.9,7.6-3.7,11.1-5.4c-0.6,10-3.5,13-15.1,14.1
		c4.6,6.5,12.9,1.5,17.5,6.7c-2.2,1.6-4.4,3.1-6.6,4.7c0,0.7,0.1,1.4,0.1,2.1c1.9,0,5.2,0.6,5.5-0.1c5.2-11.6,16.8-9.1,26.8-11
		c-3.4,3.2-6.9,6.4-10.7,9.9c0.6,0.8,1.5,1.9,2,2.6c-4,2.4-8.1,4.8-12.2,7.3c0.2,0.5,0.3,1.1,0.5,1.6c5,0.9,10.1,1.9,16.8,3.1
		c-5.1,2.5-8.3,4-12.4,6c3.7,2.9,6.6,5.2,10.4,8.2c-5.2,0.5-10.9-2.4-11.4,5.1c1,2.4,8.3-4.1,3.8,6.5c1.2-0.3,2.4-0.7,3.6-1
		c1.7-2.7,3.5-5.3,5.8-8.9c1.4,2.8,2.4,4.7,3.3,6.6c3.4,0.4,6.8,0.8,12.1,1.4c-4.8,2.7-7.9,4.4-10.7,5.9c0.4,2.5,0.8,4.8,1.2,7.5
		c1.4-0.4,3.4-0.9,5.4-1.5c1.6,1.4,3.1,2.9,5.2,4.8c2.1-3.6,3.9-7,7.1-12.5c-0.5,11.4,5.2,13,14.2,11c-2.2,4.1-3.7,7-6,11.3
		c2.7-1.8,4.1-2.7,6-3.9c-0.2,2.7-0.3,4.9-0.6,8.3c3.5-5.3,6.3-9.6,9.5-14.6c1.4,3,2.7,5.5,4.1,8.4c6.3-6.8,1.7-12.9,0.1-19.1
		c7.5,1.3,10.8,5.2,12.1,14.5c1.6-0.5,3-1.1,4.8-1.7v8.3c8.2-6.4-0.4-14.2,3.8-20.3c2.6,3.6,5.3,7.3,8,11.1c0.5-0.2,1.1-0.4,1.6-0.6
		c0.3-2,0.6-4,1-6.3c1.9,0.5,3.9,1,7.2,2c-2.1-3.2-3.4-5.1-5-7.6c3.4-0.4,6.2-0.8,10.1-1.2c-5.9-7.7-5-15.1-2.3-24.2
		c1.7,3.6,2.8,6,3.9,8.3c0.7,0,1.4,0,2,0c0.3-3.9,0.5-7.8,1-11.8c0.3-2.9,1.1-5.8,1.4-8.7c0.2-2.5,0.2-5.1-0.3-7.5
		c-1.2-5.7-2.5-11.4-4.2-16.9c-1.1-3.6-2.8-7.1-4.9-10.3c-2.3-3.4-5-6.3-4.7-10.9c0.1-1.6-1-3.7-2.2-5c-6-6.6-10.5-13.4-11.2-23
		c-0.4-5-4.7-9.8-7.4-15.1c1.1-0.3,2.4-0.7,3.7-1c-3.5-6.1-3-15.7,0.8-18.1c-1.9-5.1-6-10.3,0.8-15c0.4-0.3,0.8-1.1,0.7-1.6
		c-1.4-5.5-1.9-10,4-14.1c2.6-1.7,2.5-7.2,4-10.8c2.3-5.7,4.8-11.2,7.5-17.5c2,2.1,2.7,2.9,3.6,3.8c3.8-5.2,7.6-10.2,10.9-14.7
		c2.9-1.9,5.6-3.6,8.8-5.7c0,0.1,0.6,0.8,1.6,2c6.8-5.3,13.7-10.6,20.4-15.9c3.1,4.9,9.6,3.7,15.6-3.5c4.9-0.2,9.1,0.4,12.6-0.9
		c4-1.4,7-5.1,11.8-1.7c1.3,0.9,4.1-0.3,6.3-0.6c3,7.2,2.1,7.5-4.4,10c-19.1,7.3-37.5,16.4-50.9,32.5c-6.7,8-14,16.3-17.9,25.8
		c-4.8,11.4-9.2,23.2-5.8,37.1c2.9,11.5,6.5,22.4,12.2,32.6c2.5,4.5,5.8,8.6,9.1,12.5c9.7,11.5,13.5,25.5,17.1,39.6
		c1.2,4.6,2,9.2,3.2,13.8c4.4,17.6,5.3,35.1-1.1,52.4c-3.5,9.5-6.5,19.2-10.5,28.5c-1.7,3.9-5.5,7-8.2,10.5
		c-4.4,5.8-8.5,12-13.1,17.6c-9.5,11.4-23.9,15-36.2,21.9c-12,6.8-24.9,9.2-38.3,10.2c-5.6,0.4-8.1,3.9-5.4,9.4
		c2.8,5.6,6.7,10.5,10.2,15.8c2.9,4.3,5.8,8.5,8.7,12.8c0.7,1.1,1.5,2.1,2.3,3.1c3.3,4.4,6.6,8.7,10,13c1.2,1.5,2.3,3.7,3.9,4.2
		c6.7,2.2,8.2,8.6,11.4,13.6c4.1,6.4,1.1,11.8-2,15.7c8.1-3.1,15.8-7.2,24.7-8c4.1-0.4,6.8,5.8,3.5,8.5c-1.9,1.6-4,3-6,4.5
		c11.5,1.1,23.8-0.5,34.9-1.5c17.2-1.5,34.3-0.3,51.5,0c0-146.8,0-293.5,0-440.3H3.5v243.3c2.1-4.5,4.6-8.9,8.3-12.3
		c2.5-2.2,7.7-1.7,8.3,2.2c1.7,10.8-0.1,21.8-2.3,32.6c0.9,1.3,1.7,2.5,2.6,3.8c1.4,2.2,0.6,4.5-1,6c0.2,0,0.4,0,0.6,0
		c2.3-2.5,5.2-4.6,8.7-6c4.2-1.6,7.6,3.8,5.6,7.3c-3.5,6-4.2,12.9-5.6,19.5c-0.7,3.2-4.6,4.3-7.2,3c-0.1,6.7,0.2,13.5-1.2,20
		c-0.3,1.4-1.1,2.4-2,2.9c1.2,1,1.8,2.7,1.2,4.8c-1.4,4.7-1.7,9.2,2.9,11.9c0.8,0.5,1.6,1,2.2,1.5c3-1.9,7,1.3,7.4,4.5
		c2.6,23,3,46.1,3.1,69.2c1.5-0.6,3.2-0.6,4.5,0.2c2.3,1.6,4.1,3.5,5.4,5.8c1.9-0.6,4.1,0,5.6,2.1c0.7,1,1.4,2.1,2,3.1
		c2.2-0.4,4.6,0.5,5.3,3.1c0.9-0.1,2,0,2.9,0.5c1.9-3.2,6.1-4.3,10.6-3.6c1.8,0.3,3,1.8,3.4,3.5c3,0,5.1,3.4,4.3,6.4
		c0.2,0.2,0.4,0.4,0.6,0.6c4,4.5-2,11-6.3,7.7h0c0.5,1.2,1.1,2.4,1.5,3.7c0,0.1,0,0.1,0,0.2c110.7,0,221.3,0,332,0
		c-0.3-1.9,0.4-4,2.1-5C409.4,439.7,407.5,438.3,403.1,437z"/>
	<path fill="#FFFFFF" d="M48.9,444.7c0-0.2-0.1-0.3-0.1-0.5c-1.3,1-3,1.4-4.5,0.9c-0.5,1.1-1.3,2-2.3,2.5h8.6
		C49.7,447.1,49.1,446.1,48.9,444.7z"/>
	<path d="M414.7,434.9c2.6-0.9,6.3,1,10.2,2c0,0,0,0,0.1,0c3.1-3.9,6.1-9.3,2-15.7c-3.2-5-4.7-11.3-11.4-13.6
		c-1.6-0.5-2.7-2.7-3.9-4.2c-3.4-4.3-6.7-8.7-10-13c-0.8-1-1.6-2-2.3-3.1c-2.9-4.2-5.8-8.5-8.7-12.8c-3.5-5.2-7.4-10.2-10.2-15.8
		c-2.7-5.5-0.2-9,5.4-9.4c13.4-1,26.2-3.3,38.3-10.2c12.3-7,26.7-10.5,36.2-21.9c4.7-5.6,8.7-11.7,13.1-17.6
		c2.7-3.6,6.5-6.6,8.2-10.5c4-9.3,7-19,10.5-28.5c6.5-17.4,5.6-34.8,1.1-52.4c-1.1-4.6-2-9.2-3.2-13.8c-3.6-14.1-7.3-28.1-17.1-39.6
		c-3.3-3.9-6.7-8-9.1-12.5c-5.6-10.2-9.3-21.1-12.2-32.6c-3.5-13.9,1-25.6,5.8-37.1c4-9.5,11.2-17.8,17.9-25.8
		c13.5-16.1,31.8-25.2,50.9-32.5c6.5-2.5,7.4-2.8,4.4-10c-2.1,0.3-4.9,1.5-6.3,0.6c-4.8-3.4-7.9,0.2-11.8,1.7
		c-3.5,1.3-7.8,0.6-12.6,0.9c-6,7.2-12.5,8.4-15.6,3.5c-6.7,5.2-13.6,10.6-20.4,15.9c-1-1.2-1.6-2-1.6-2c-3.2,2.1-5.9,3.9-8.8,5.7
		c-3.4,4.5-7.1,9.6-10.9,14.7c-0.9-1-1.6-1.7-3.6-3.8c-2.7,6.2-5.2,11.8-7.5,17.5c-1.5,3.6-1.4,9.1-4,10.8c-5.9,4-5.4,8.6-4,14.1
		c0.1,0.4-0.3,1.3-0.7,1.6c-6.8,4.7-2.7,9.9-0.8,15c-3.8,2.3-4.3,12-0.8,18.1c-1.3,0.4-2.5,0.7-3.7,1c2.8,5.3,7.1,10.1,7.4,15.1
		c0.7,9.6,5.2,16.4,11.2,23c1.2,1.3,2.3,3.4,2.2,5c-0.4,4.6,2.4,7.5,4.7,10.9c2.1,3.1,3.8,6.7,4.9,10.3c1.7,5.5,3,11.2,4.2,16.9
		c0.5,2.4,0.5,5,0.3,7.5c-0.2,2.9-1,5.8-1.4,8.7c-0.4,3.9-0.7,7.8-1,11.8c-0.7,0-1.4,0-2,0c-1.1-2.3-2.2-4.7-3.9-8.3
		c-2.7,9.1-3.5,16.5,2.3,24.2c-3.9,0.5-6.7,0.8-10.1,1.2c1.6,2.5,2.9,4.5,5,7.6c-3.4-0.9-5.3-1.4-7.2-2c-0.4,2.3-0.7,4.3-1,6.3
		c-0.5,0.2-1.1,0.4-1.6,0.6c-2.7-3.7-5.4-7.5-8-11.1c-4.2,6.1,4.4,13.9-3.8,20.3v-8.3c-1.8,0.6-3.3,1.1-4.8,1.7
		c-1.3-9.3-4.6-13.1-12.1-14.5c1.6,6.2,6.2,12.3-0.1,19.1c-1.4-2.9-2.6-5.4-4.1-8.4c-3.2,4.9-6.1,9.2-9.5,14.6
		c0.2-3.4,0.4-5.6,0.6-8.3c-1.9,1.3-3.3,2.2-6,3.9c2.3-4.3,3.8-7.2,6-11.3c-9,2.1-14.7,0.5-14.2-11c-3.2,5.6-5,8.9-7.1,12.5
		c-2-1.9-3.6-3.3-5.2-4.8c-2,0.6-4,1.1-5.4,1.5c-0.5-2.8-0.8-5-1.2-7.5c2.8-1.5,5.9-3.3,10.7-5.9c-5.3-0.6-8.7-1-12.1-1.4
		c-0.9-1.9-1.9-3.8-3.3-6.6c-2.3,3.5-4.1,6.2-5.8,8.9c-1.2,0.3-2.4,0.7-3.6,1c4.4-10.5-2.8-4-3.8-6.5c0.5-7.6,6.2-4.6,11.4-5.1
		c-3.9-3-6.8-5.3-10.4-8.2c4.1-2,7.3-3.5,12.4-6c-6.7-1.2-11.7-2.2-16.8-3.1c-0.2-0.5-0.3-1.1-0.5-1.6c4.1-2.4,8.2-4.9,12.2-7.3
		c-0.5-0.7-1.4-1.8-2-2.6c3.8-3.5,7.3-6.7,10.7-9.9c-10,2-21.6-0.6-26.8,11c-0.3,0.7-3.6,0.1-5.5,0.1c0-0.7-0.1-1.4-0.1-2.1
		c2.2-1.6,4.4-3.1,6.6-4.7c-4.6-5.2-12.9-0.2-17.5-6.7c11.6-1.1,14.5-4.1,15.1-14.1c-3.5,1.7-7.3,3.6-11.1,5.4
		c0.9-11.9,8.7-17.3,17.3-22.6c-13-3.9-18.7,6.8-26.9,12.2c-0.4-2.6-0.7-4.5-1-6.6c5.1-1.6,11.2-2.1,12-9.1c-2.9,0.3-5.5,0.6-8.2,1
		c-0.3-0.5-0.5-1.1-0.8-1.6c5.9-4.9,15-7.5,14.1-17.2c-6.1,1.9-11.9,4.3-18,5.5c-3.7,0.8-6.2,1.3-7.7,5.4c-0.9,2.6-4,4.4-6.1,6.6
		l-1.7-1.4c1.4-2.3,2.8-4.6,4.2-6.9c-1.1-0.8-2.2-1.6-3.3-2.4c5-2.2,9.5-4.3,15.3-6.9c-4.4-1-6.9-1.6-9.4-2.2c2-3,3.1-6.9,5.1-7.5
		c7-2,10-6.5,12.9-12.9c2.5-5.5,7.8-9.8,11.9-14.8c-6.4-0.1-12.1-0.2-16,7c-2.1,3.9-7.3,6-12.4,10v-6.7c-3.1,1.4-5.7,2.6-8.2,3.8
		c-0.5-0.7-1-1.4-1.5-2.1c14.2-4.9,20.3-19,32-26.2c7.5-4.6,7.8-10.9,9.4-17.9c-13.8,8-26.7,15.4-41.2,23.8
		c2.6-5.8,4.6-10.3,6.9-15.5c-7.2,3.4-13.2,6.8-15.5,14.6c-1.3,4.5-4.2,7.8-8.7,8.4c1.1-5.2,2.1-10.2,3.2-15.3
		c-5.1,5-9.5,9.3-13.9,13.7c-0.7-0.6-1.3-1.1-2-1.7c0.6-2,1.1-4,1.7-6c-1.3-0.2-2.3-0.4-2.3-0.4c-0.4-3.3-0.7-6.1-1.1-9.3
		c0.4-3.5,0.9-7.6,1.4-11.7c6.1-9,5.4-20.2,7.1-30.9c-6.1,9.7-11.7,19.1-26.3,20.7c2.9-4.3,5-7.4,7.1-10.5c-0.4-0.5-0.8-1.1-1.1-1.6
		c-6.2,3.7-12.4,7.4-19.6,11.7c0.4-4.9,0.8-9,1.2-13.1c-0.5-0.3-0.9-0.5-1.4-0.8c-3.3,5.4-6.7,10.9-10.7,17.4V50.5
		c-2.3,1.1-4.4,2.1-6.9,3.3c1.9-6.4,3.4-11.7,5-17c-0.6-0.2-1.1-0.4-1.7-0.7c-2.8,3.3-5.6,6.7-9.4,11.2c-0.4-5.4-0.6-9.1-0.9-12.9
		c-0.6-0.2-1.2-0.4-1.8-0.6c-2.5,4.7-5,9.4-7.7,14.4c-0.9-1.4-1.5-2.2-2-3.1c-1.7,0.9-3.3,1.9-5.5,3.1c1-3.2,1.6-5.5,2.4-8.2
		c-9.2,0.4-9,0.4-8.1-7.7c0.3-2.9-1-6-1.7-9.8c-7.4,7.8-7.4,8.1-17.4,7.3c-3-0.2-5.9-2.6-8.9-3.4c-4.5-1.2-9.1-2-13.6-3
		c-0.6-0.1-1.1-0.6-1.6-1c-2.8-2.2-5.4-6-8.5-6.4c-9.8-1.1-18.2-10.4-29.2-4.5c-4.8,2.6-10.6,3.4-15.7,5.6
		c-4.4,1.9-8.4,4.8-12.8,6.8c-5.8,2.7-6.6,4.4-3.2,9.9c-13.3,18.8-13.4,19.7-1.7,29.8c4.6-4,11.5-3.7,15.8,0.9
		c-3,2.1-5.8,4.1-9.5,6.6c0,6,1.9,12.5,10.6,14c7.9,1.3,14.9-0.3,18.1-9.8c1.9,4.3,3.5,7.3,4.5,10.4c1.2,3.5,1.8,7.3,2.8,11.5
		c0.1,0,1.4,0.3,2.9,0.6c-0.5,1.6-1.4,2.9-1.1,3.6c2.8,6.2-1.6,8.4-5.6,11.2c-1.1,0.8-1.1,3.3-1.5,5c-2.5,2-5.3,4.3-8.1,6.6
		c0.7,0.2,1.4,0.5,2.1,0.7c-0.9,6.5-1.8,13-2.7,19.9c1.5-0.5,2.8-0.9,4-1.3c0.6,2.1,0.5,4.3,1.6,5.5c5.6,6.1,8.9,12.8,5.7,21.1
		c-0.7,1.7-2.4,3.7-4.1,4.2c-8.6,2.7-16.3-1.2-23.8-4.3c-6-2.5-13-3.7-16.5-10.6c-1.7-3.4-4.4-6.6-7.1-9.3c-1.7-1.7-4.7-2.2-6.6-3.8
		c-8.2-7-18-6.5-26.8,1.7c4.5,1.8,11.6-1.3,13,7.3c-12.5,1.5-17.8,10.1-21,20.7c2.4-1.1,4.1-3.3,6.3-4.1c2.4-0.9,5.3-0.5,8-0.8
		c1-0.1,1.9-0.9,2.8-1.5c5.2-3.4,5.7-3.2,7.2,3c-10.3,3.1-15,9.6-13.4,16.6c3.5-1.2,7.5-1.7,10.5-3.7c5.5-3.8,7.4,1.4,10.8,3.3
		c2,1.1,4.5,2.4,6.7,2.2c11-1,19.7,4.1,28.4,9.5c9.1,5.7,19.1,9.1,29.5,8.6c10.2-0.5,20.9-2.2,25.9-13.7c-0.2,2-0.4,4.1-0.6,6.2
		c3.1-1.7,5.9-3.3,8.6-4.8c-3.1,8.1-11,13.6-6.9,23.8c1-1.4,1.8-2.4,2.4-3.5c2.1-4.4,6.5-5.7,9.6-3.4c2.2,1.6,3.4,6.8,2.7,9.8
		c-1.3,4.8-4.2,9.4-7,13.7c-4.2,6.3-10,11.6-13.4,18.2c-6.2,11.9-10.9,24.4-16.6,36.5c-3.1,6.5-5.1,12.8-3.5,20.1
		c0.5,2.2-0.3,4.7-0.6,7c-0.9,9-3.2,18.6,4,26c4,4.2,4.2,8.4,4,13.5c-0.2,6.8,0.9,13.3,6,18.8c2.9,3.1,6.5,7,6.6,10.7
		c0.2,4.8-1.8,10.5-4.8,14.2c-2.2,2.8-7.7,2.8-11.6,4.5c-4.5,1.9-9.4,3.5-12.9,6.6c-9.4,8.3-10,14.4-3.8,27.6
		c1.7-1.4,3.4-2.9,5.8-4.9c0.4,3.7,0.8,6.5,1,8.2c3-1.7,5.5-4,8.3-4.4c4.6-0.7,9.3-0.2,14.5-0.2c0.3,1,0.9,2.5,1.2,3.5
		c2.2-1.1,4.8-3.5,6.4-3c11.3,3.8,19.4-7.1,30-6.1c0.2,0,0.4-0.2,0.5-0.4c3-5.2,8.2-4.8,13.2-5.3c9.7-1.1,12.6-5.8,10.2-15.2
		c-1.4-5.4-2.1-10.9-3.3-16.4c-0.5-2.5-0.8-5.2-1.9-7.5c-2.6-5.5-2.6-10.6-0.6-16.4c3.4-9.5,6.2-19.3-0.4-28.8
		c-4-5.7-8-11.4-12.2-17.2c3.9-2.1,8.3-4.4,12.7-6.7c4.8-2.5,9.4-5.3,14.4-7.1c6.5-2.4,13.2-4.2,19.9-6.1c1.5-0.4,3.5-0.7,4.8,0
		c8.4,4.6,16.6,9.3,24.8,14.2c16.1,9.7,33.5,16,51.6,20.8c1.7,0.5,3.8,2,4.5,3.6c2,4.4,3,9.3,5.1,13.7c4.1,8.7,8.4,17.1,20,18
		c4,0.3,8.3,1.6,11.6,3.8c3.2,2.1,5.5,5.6,7.7,8.9c1.2,1.9,0.7,5.1,2.2,6.6c5.4,5.6,2.2,9.6-1.1,14.7c-5,7.6-9.3,15.9-4.6,24.3
		c3.9-0.9,7.2-2.3,10.5-2.4c5.1-0.1,8.7-1.8,10.8-6.7c0.6-1.5,2.2-2.6,4.5-5.2c0.2,3.7,0.5,5.4,0.3,7c-0.7,5,2.1,7,6.3,8.4
		c4,1.4,7.8,3.3,11.7,5c1.5-3.5,3.6-8.2,5.3-12.2c4.3,2.5,8.2,5.8,12.7,7.1c4.4,1.2,6.2,2.7,5.5,5.6c0.6-0.4,1.3-0.7,2.2-0.7
		C412.2,438.6,413,435.5,414.7,434.9z"/>
</g>
</svg>
